<svg width="36" height="36" viewBox="0 0 36 36" fill="none" xmlns="http://www.w3.org/2000/svg">
<path fill-rule="evenodd" clip-rule="evenodd" d="M31.965 13.665L30 13.02L30.93 11.19C31.2257 10.6126 31.1168 9.91059 30.66 9.44999L26.55 5.32499C26.0894 4.86822 25.3874 4.75929 24.81 5.05499L22.98 5.99999L22.335 4.04999C22.1259 3.40598 21.5113 2.9819 20.835 3.01499H15.09C14.4137 2.9819 13.7991 3.40598 13.59 4.04999L13.02 5.99999L11.19 5.05499C10.6126 4.75929 9.91059 4.86822 9.44999 5.32499L5.32499 9.44999C4.86822 9.91059 4.75929 10.6126 5.05499 11.19L5.99999 13.02L4.04999 13.665C3.40598 13.8741 2.9819 14.4887 3.01499 15.165V20.985C2.9819 21.6613 3.40598 22.2759 4.04999 22.485L5.99999 23.13L5.06999 24.96C4.77429 25.5374 4.88322 26.2394 5.33999 26.7L9.44999 30.675C9.91059 31.1318 10.6126 31.2407 11.19 30.945L13.02 30L13.665 31.95C13.8741 32.594 14.4887 33.0181 15.165 32.985H20.985C21.6613 33.0181 22.2759 32.594 22.485 31.95L23.13 30L24.96 30.93C25.5374 31.2257 26.2394 31.1168 26.7 30.66L30.825 26.535C31.2818 26.0744 31.3907 25.3724 31.095 24.795L30 22.98L31.95 22.335C32.594 22.1259 33.0181 21.5113 32.985 20.835V15.09C32.9867 14.4451 32.576 13.8714 31.965 13.665ZM10.5 18C10.5 13.8579 13.8579 10.5 18 10.5C19.9891 10.5 21.8968 11.2902 23.3033 12.6967C24.7098 14.1032 25.5 16.0109 25.5 18C25.5 22.1421 22.1421 25.5 18 25.5C13.8579 25.5 10.5 22.1421 10.5 18ZM13.5 18C13.5 20.4853 15.5147 22.5 18 22.5C19.1935 22.5 20.3381 22.0259 21.182 21.182C22.0259 20.3381 22.5 19.1935 22.5 18C22.5 15.5147 20.4853 13.5 18 13.5C15.5147 13.5 13.5 15.5147 13.5 18ZM29.085 20.13L30 19.83V16.17L29.085 15.87C28.2522 15.6011 27.5783 14.982 27.24 14.175C26.9077 13.3647 26.946 12.4496 27.345 11.67L27.78 10.8L25.2 8.21999L24.33 8.65499C23.5502 9.04815 22.6379 9.08204 21.8311 8.74781C21.0243 8.41357 20.4033 7.7444 20.13 6.91499L19.83 5.99999H16.17L15.87 6.91499C15.5967 7.7444 14.9756 8.41357 14.1689 8.74781C13.3621 9.08204 12.4497 9.04815 11.67 8.65499L10.8 8.21999L8.21999 10.8L8.65499 11.67C9.05396 12.4496 9.09231 13.3647 8.75999 14.175C8.42165 14.982 7.74777 15.6011 6.91499 15.87L5.99999 16.17V19.83L6.91499 20.13C7.74777 20.3989 8.42165 21.0179 8.75999 21.825C9.09231 22.6353 9.05396 23.5503 8.65499 24.33L8.21999 25.2L10.8 27.78L11.67 27.345C12.4497 26.9518 13.3621 26.9179 14.1689 27.2522C14.9756 27.5864 15.5967 28.2556 15.87 29.085L16.17 30H19.83L20.13 29.085C20.4033 28.2556 21.0243 27.5864 21.8311 27.2522C22.6379 26.9179 23.5502 26.9518 24.33 27.345L25.2 27.78L27.78 25.2L27.345 24.33C26.946 23.5503 26.9077 22.6353 27.24 21.825C27.5783 21.0179 28.2522 20.3989 29.085 20.13Z" fill="#231F20"/>
</svg>
