<svg width="25" height="25" viewBox="0 0 25 25" fill="none" xmlns="http://www.w3.org/2000/svg">
<path d="M21.3126 10.0312C21.1663 8.5092 20.6284 7.05104 19.7513 5.79868C18.8742 4.54632 17.6877 3.54245 16.3073 2.8848C14.927 2.22716 13.3999 1.93817 11.8748 2.04596C10.3496 2.15375 8.87832 2.65467 7.60423 3.49992C6.50964 4.23184 5.59074 5.1971 4.91354 6.32636C4.23634 7.45563 3.81766 8.72086 3.68756 10.0312C3.55994 11.3329 3.72368 12.6467 4.1669 13.8773C4.61013 15.1079 5.32172 16.2244 6.25006 17.1457L11.7709 22.677C11.8677 22.7746 11.9829 22.8521 12.1099 22.905C12.2368 22.9579 12.373 22.9851 12.5105 22.9851C12.648 22.9851 12.7841 22.9579 12.9111 22.905C13.038 22.8521 13.1532 22.7746 13.2501 22.677L18.7501 17.1457C19.6784 16.2244 20.39 15.1079 20.8332 13.8773C21.2764 12.6467 21.4402 11.3329 21.3126 10.0312ZM17.2917 15.677L12.5001 20.4687L7.70839 15.677C7.00224 14.9708 6.46131 14.1169 6.12451 13.1767C5.7877 12.2366 5.66338 11.2335 5.76048 10.2395C5.8582 9.23023 6.17898 8.25529 6.69961 7.38517C7.22024 6.51505 7.92772 5.77148 8.77089 5.20825C9.87604 4.47412 11.1733 4.08251 12.5001 4.08251C13.8268 4.08251 15.1241 4.47412 16.2292 5.20825C17.0698 5.76931 17.7758 6.50958 18.2963 7.37589C18.8168 8.2422 19.1389 9.21304 19.2396 10.2187C19.3399 11.216 19.2171 12.2231 18.8803 13.1672C18.5434 14.1112 18.0008 14.9685 17.2917 15.677ZM12.5001 6.24992C11.573 6.24992 10.6667 6.52483 9.89582 7.0399C9.12497 7.55497 8.52416 8.28706 8.16937 9.14359C7.81459 10.0001 7.72176 10.9426 7.90263 11.8519C8.0835 12.7612 8.52994 13.5964 9.1855 14.252C9.84106 14.9075 10.6763 15.354 11.5856 15.5348C12.4949 15.7157 13.4374 15.6229 14.2939 15.2681C15.1504 14.9133 15.8825 14.3125 16.3976 13.5417C16.9126 12.7708 17.1876 11.8645 17.1876 10.9374C17.1848 9.69506 16.6901 8.50437 15.8116 7.62589C14.9331 6.74741 13.7424 6.25267 12.5001 6.24992ZM12.5001 13.5416C11.985 13.5416 11.4815 13.3889 11.0533 13.1027C10.625 12.8166 10.2912 12.4098 10.0941 11.934C9.89702 11.4581 9.84545 10.9345 9.94593 10.4294C10.0464 9.92421 10.2944 9.46019 10.6586 9.09599C11.0228 8.73179 11.4869 8.48377 11.992 8.38329C12.4972 8.2828 13.0208 8.33438 13.4966 8.53148C13.9725 8.72858 14.3792 9.06237 14.6653 9.49062C14.9515 9.91887 15.1042 10.4224 15.1042 10.9374C15.1042 11.6281 14.8299 12.2905 14.3415 12.7788C13.8531 13.2672 13.1907 13.5416 12.5001 13.5416Z" fill="black"/>
</svg>
