<svg width="32" height="31" viewBox="0 0 32 31" fill="none" xmlns="http://www.w3.org/2000/svg">
<path fill-rule="evenodd" clip-rule="evenodd" d="M22.6665 9.04158C22.6665 5.47475 19.6817 2.58325 15.9998 2.58325C12.3179 2.58325 9.33317 5.47475 9.33317 9.04158C9.33317 12.6084 12.3179 15.4999 15.9998 15.4999H14.6665C8.03909 15.4999 2.6665 20.7046 2.6665 27.1249C2.6665 27.8383 3.26346 28.4166 3.99984 28.4166H27.9998C28.7362 28.4166 29.3332 27.8383 29.3332 27.1249C29.3332 20.7046 23.9606 15.4999 17.3332 15.4999H15.9998C17.7679 15.4999 19.4636 14.8195 20.7139 13.6083C21.9641 12.3971 22.6665 10.7544 22.6665 9.04158ZM14.6665 18.0833C10.026 18.0821 6.08943 21.3839 5.4265 25.8333H26.5732C25.9102 21.3839 21.9737 18.0821 17.3332 18.0833H14.6665ZM11.9998 9.04159C11.9998 11.1817 13.7907 12.9166 15.9998 12.9166C17.0607 12.9166 18.0781 12.5083 18.8283 11.7816C19.5784 11.0549 19.9998 10.0693 19.9998 9.04159C19.9998 6.90148 18.209 5.16659 15.9998 5.16659C13.7907 5.16659 11.9998 6.90148 11.9998 9.04159Z" fill="#231F20"/>
</svg>
